# xmcd
#
# Track frame offsets:
#	150
#	13880
#	25765
#	37780
#	51820
#	63615
#	75775
#	86900
#	100622
#	112390
#	124262
#	134657
#
# Disc length: 1948 seconds
#
# Revision: 2
# Processed by: cddbd v1.5PL3 Copyright (c) Steve Scherf et al.
# Submitted via: CDmax 2.0
#
DISCID=9d079a0c
DTITLE=Jackie DeShannon - Classic Masters
DYEAR=2002
DGENRE=Rock
TTITLE0=Faded Love
TTITLE1=Needles And Pins
TTITLE2=When You Walk In The Room
TTITLE3=What The World Needs Now Is Love
TTITLE4=A Lifetime Of Loneliness
TTITLE5=Come And Get Me
TTITLE6=I Can Make It With You
TTITLE7=The Weight
TTITLE8=Put A Little Love In Your Heart
TTITLE9=Love Will Find A Way
TTITLE10=Brighton Hill
TTITLE11=It's So Nice
EXTD=
EXTT0=(Wills/Wills)
EXTT1=(Bono/Nitzsche)
EXTT2=(DeShannon)
EXTT3=(Bacharach/David)
EXTT4=(Bacharach/David)
EXTT5=(Bacharach/David)
EXTT6=(Taylor)
EXTT7=(Robertson)
EXTT8=(DeShannon/Holiday/Myers)
EXTT9=(DeShannon/Holiday/Myers)
EXTT10=(DeShannon/Holiday/Myers)
EXTT11=It's So Nice (Hunt/Russell)
PLAYORDER=
